<svg xmlns="http://www.w3.org/2000/svg" xmlns:xlink="http://www.w3.org/1999/xlink" width="0" height="0" style="display:none;"><symbol viewBox="0 0 24 24" id="price-tag-3-line"><path d="M10.9042 2.1001L20.8037 3.51431L22.2179 13.4138L13.0255 22.6062C12.635 22.9967 12.0019 22.9967 11.6113 22.6062L1.71184 12.7067C1.32131 12.3162 1.32131 11.683 1.71184 11.2925L10.9042 2.1001ZM11.6113 4.22142L3.83316 11.9996L12.3184 20.4849L20.0966 12.7067L19.036 5.28208L11.6113 4.22142ZM13.7327 10.5854C12.9516 9.80433 12.9516 8.538 13.7327 7.75695C14.5137 6.9759 15.78 6.9759 16.5611 7.75695C17.3421 8.538 17.3421 9.80433 16.5611 10.5854C15.78 11.3664 14.5137 11.3664 13.7327 10.5854Z"></path></symbol><symbol viewBox="0 0 24 24" id="facebook-circle-line"><path d="M13.001 19.9381C16.9473 19.446 20.001 16.0796 20.001 12C20.001 7.58172 16.4193 4 12.001 4C7.5827 4 4.00098 7.58172 4.00098 12C4.00098 16.0796 7.05467 19.446 11.001 19.9381V14H9.00098V12H11.001V10.3458C11.001 9.00855 11.1402 8.52362 11.4017 8.03473C11.6631 7.54584 12.0468 7.16216 12.5357 6.9007C12.9184 6.69604 13.3931 6.57252 14.2227 6.51954C14.5519 6.49851 14.9781 6.52533 15.501 6.6V8.5H15.001C14.0837 8.5 13.7052 8.54332 13.4789 8.66433C13.3386 8.73939 13.2404 8.83758 13.1653 8.97793C13.0443 9.20418 13.001 9.42853 13.001 10.3458V12H15.501L15.001 14H13.001V19.9381ZM12.001 22C6.47813 22 2.00098 17.5228 2.00098 12C2.00098 6.47715 6.47813 2 12.001 2C17.5238 2 22.001 6.47715 22.001 12C22.001 17.5228 17.5238 22 12.001 22Z"></path></symbol><symbol viewBox="0 0 24 24" id="github-line"><path d="M5.88401 18.6531C5.58404 18.4523 5.32587 18.1972 5.0239 17.8366C4.91473 17.7062 4.47283 17.1521 4.55811 17.258C4.09533 16.6831 3.80296 16.4168 3.50156 16.3087C2.9817 16.1223 2.7114 15.5497 2.89784 15.0298C3.08428 14.51 3.65685 14.2397 4.17672 14.4261C4.92936 14.696 5.43847 15.1609 6.12425 16.0141C6.03025 15.8972 6.46364 16.4408 6.55731 16.5526C6.74784 16.7802 6.88732 16.918 6.99629 16.9909C7.20118 17.128 7.58451 17.1871 8.14709 17.1308C8.17065 16.7487 8.24136 16.378 8.34919 16.0355C5.38097 15.3101 3.70116 13.3949 3.70116 9.63947C3.70116 8.4006 4.0704 7.28368 4.75917 6.34756C4.5415 5.45368 4.57433 4.37259 5.06092 3.15611C5.1725 2.87715 5.40361 2.66314 5.69031 2.57328C5.77242 2.54949 5.81791 2.5389 5.89878 2.52648C6.70167 2.40319 7.83573 2.69681 9.31449 3.62311C10.181 3.41855 11.0885 3.31476 12.0012 3.31476C12.9129 3.31476 13.8196 3.41835 14.6854 3.62253C16.1619 2.68976 17.2986 2.39625 18.1072 2.52627C18.1919 2.53988 18.2645 2.55758 18.3249 2.57741C18.6059 2.66967 18.8316 2.88155 18.9414 3.15611C19.4279 4.37232 19.4608 5.45319 19.2433 6.34695C19.9342 7.28313 20.3012 8.39184 20.3012 9.63947C20.3012 13.3966 18.627 15.3046 15.6588 16.0318C15.7837 16.4467 15.8496 16.9103 15.8496 17.4118C15.8496 18.0763 15.8471 18.7108 15.8424 19.4223C15.8412 19.6124 15.8397 19.8156 15.8375 20.1279C16.2129 20.2107 16.5229 20.5074 16.6031 20.9086C16.7114 21.4502 16.3602 21.977 15.8186 22.0853C14.6794 22.3132 13.8353 21.5535 13.8353 20.5608C13.8353 20.4705 13.836 20.3414 13.8375 20.1142C13.8398 19.8012 13.8412 19.5987 13.8425 19.4092C13.8471 18.7017 13.8496 18.0714 13.8496 17.4118C13.8496 16.7145 13.6664 16.26 13.4237 16.0508C12.7627 15.481 13.0977 14.3971 13.965 14.2996C16.9314 13.9663 18.3012 12.8174 18.3012 9.63947C18.3012 8.68484 17.9893 7.89547 17.3881 7.23534C17.1301 6.95209 17.0567 6.54634 17.199 6.19062C17.3647 5.77639 17.4354 5.2336 17.2941 4.57678L17.2847 4.57944C16.7928 4.71861 16.1744 5.01956 15.4261 5.52826C15.182 5.69413 14.8772 5.74377 14.5932 5.66388C13.7729 5.43319 12.8913 5.31476 12.0012 5.31476C11.111 5.31476 10.2294 5.43319 9.40916 5.66388C9.12662 5.74335 8.82344 5.69468 8.57997 5.53077C7.8274 5.02414 7.2056 4.72355 6.71079 4.58352C6.56735 5.23672 6.63814 5.77758 6.80336 6.19062C6.94565 6.54634 6.87219 6.95209 6.61423 7.23534C6.01715 7.89096 5.70116 8.69352 5.70116 9.63947C5.70116 12.8114 7.07225 13.9681 10.023 14.2996C10.8883 14.3969 11.2246 15.4767 10.5675 16.048C10.3751 16.2153 10.1384 16.7799 10.1384 17.4118V20.5608C10.1384 21.5472 9.30356 22.2866 8.17878 22.0898C7.63476 21.9946 7.27093 21.4764 7.36613 20.9324C7.43827 20.5201 7.75331 20.2114 8.13841 20.1274V19.1379C7.22829 19.1991 6.47656 19.0496 5.88401 18.6531Z"></path></symbol><symbol viewBox="0 0 24 24" id="rss-line"><path d="M3 17C5.20914 17 7 18.7909 7 21H3V17ZM3 10C9.07513 10 14 14.9249 14 21H12C12 16.0294 7.97056 12 3 12V10ZM3 3C12.9411 3 21 11.0589 21 21H19C19 12.1634 11.8366 5 3 5V3Z"></path></symbol><symbol viewBox="0 0 24 24" id="copyright-line"><path d="M16.2877 9.42773C15.413 7.97351 13.8195 7 12 7 9.23999 7 7 9.23999 7 12 7 14.76 9.23999 17 12 17 13.8195 17 15.413 16.0265 16.2877 14.5723L14.5729 13.5442C14.0483 14.4166 13.0927 15 12 15 10.3425 15 9 13.6575 9 12 9 10.3425 10.3425 9 12 9 13.093 9 14.0491 9.58386 14.5735 10.4568L16.2877 9.42773ZM22 12C22 6.47998 17.52 2 12 2 6.47998 2 2 6.47998 2 12 2 17.52 6.47998 22 12 22 17.52 22 22 17.52 22 12ZM4 12C4 7.57996 7.57996 4 12 4 16.42 4 20 7.57996 20 12 20 16.42 16.42 20 12 20 7.57996 20 4 16.42 4 12Z"></path></symbol><symbol viewBox="0 0 24 24" id="close-fill"><path d="M12.0007 10.5865L16.9504 5.63672L18.3646 7.05093L13.4149 12.0007L18.3646 16.9504L16.9504 18.3646L12.0007 13.4149L7.05093 18.3646L5.63672 16.9504L10.5865 12.0007L5.63672 7.05093L7.05093 5.63672L12.0007 10.5865Z"></path></symbol><symbol viewBox="0 0 24 24" id="check-fill"><path d="M10.0007 15.1709L19.1931 5.97852L20.6073 7.39273L10.0007 17.9993L3.63672 11.6354L5.05093 10.2212L10.0007 15.1709Z"></path></symbol><symbol viewBox="0 0 24 24" id="arrow-right-s-line"><path d="M13.1714 12.0007L8.22168 7.05093L9.63589 5.63672L15.9999 12.0007L9.63589 18.3646L8.22168 16.9504L13.1714 12.0007Z"></path></symbol><symbol viewBox="0 0 24 24" id="arrow-left-s-line"><path d="M10.8284 12.0007L15.7782 16.9504L14.364 18.3646L8 12.0007L14.364 5.63672L15.7782 7.05093L10.8284 12.0007Z"></path></symbol><symbol viewBox="0 0 24 24" id="share-forward-line"><path d="M13 14H11C7.54202 14 4.53953 15.9502 3.03239 18.8107C3.01093 18.5433 3 18.2729 3 18C3 12.4772 7.47715 8 13 8V2.5L23.5 11L13 19.5V14ZM11 12H15V15.3078L20.3214 11L15 6.69224V10H13C10.5795 10 8.41011 11.0749 6.94312 12.7735C8.20873 12.2714 9.58041 12 11 12Z"></path></symbol><symbol viewBox="0 0 24 24" id="share-line"><path d="M13.1202 17.0228L8.92129 14.7324C8.19135 15.5125 7.15261 16 6 16C3.79086 16 2 14.2091 2 12C2 9.79086 3.79086 8 6 8C7.15255 8 8.19125 8.48746 8.92118 9.26746L13.1202 6.97713C13.0417 6.66441 13 6.33707 13 6C13 3.79086 14.7909 2 17 2C19.2091 2 21 3.79086 21 6C21 8.20914 19.2091 10 17 10C15.8474 10 14.8087 9.51251 14.0787 8.73246L9.87977 11.0228C9.9583 11.3355 10 11.6629 10 12C10 12.3371 9.95831 12.6644 9.87981 12.9771L14.0788 15.2675C14.8087 14.4875 15.8474 14 17 14C19.2091 14 21 15.7909 21 18C21 20.2091 19.2091 22 17 22C14.7909 22 13 20.2091 13 18C13 17.6629 13.0417 17.3355 13.1202 17.0228ZM6 14C7.10457 14 8 13.1046 8 12C8 10.8954 7.10457 10 6 10C4.89543 10 4 10.8954 4 12C4 13.1046 4.89543 14 6 14ZM17 8C18.1046 8 19 7.10457 19 6C19 4.89543 18.1046 4 17 4C15.8954 4 15 4.89543 15 6C15 7.10457 15.8954 8 17 8ZM17 20C18.1046 20 19 19.1046 19 18C19 16.8954 18.1046 16 17 16C15.8954 16 15 16.8954 15 18C15 19.1046 15.8954 20 17 20Z"></path></symbol><symbol viewBox="0 0 24 24" id="time-line"><path d="M12 22C6.47715 22 2 17.5228 2 12C2 6.47715 6.47715 2 12 2C17.5228 2 22 6.47715 22 12C22 17.5228 17.5228 22 12 22ZM12 20C16.4183 20 20 16.4183 20 12C20 7.58172 16.4183 4 12 4C7.58172 4 4 7.58172 4 12C4 16.4183 7.58172 20 12 20ZM13 12H17V14H11V7H13V12Z"></path></symbol><symbol viewBox="0 0 24 24" id="links-fill"><path d="M13.0605 8.11073L14.4747 9.52494C17.2084 12.2586 17.2084 16.6908 14.4747 19.4244L14.1211 19.778C11.3875 22.5117 6.95531 22.5117 4.22164 19.778C1.48797 17.0443 1.48797 12.6122 4.22164 9.87849L5.63585 11.2927C3.68323 13.2453 3.68323 16.4112 5.63585 18.3638C7.58847 20.3164 10.7543 20.3164 12.7069 18.3638L13.0605 18.0102C15.0131 16.0576 15.0131 12.8918 13.0605 10.9392L11.6463 9.52494L13.0605 8.11073ZM19.778 14.1211L18.3638 12.7069C20.3164 10.7543 20.3164 7.58847 18.3638 5.63585C16.4112 3.68323 13.2453 3.68323 11.2927 5.63585L10.9392 5.98941C8.98653 7.94203 8.98653 11.1079 10.9392 13.0605L12.3534 14.4747L10.9392 15.8889L9.52494 14.4747C6.79127 11.741 6.79127 7.30886 9.52494 4.57519L9.87849 4.22164C12.6122 1.48797 17.0443 1.48797 19.778 4.22164C22.5117 6.95531 22.5117 11.3875 19.778 14.1211Z"></path></symbol><symbol viewBox="0 0 24 24" id="mail-send-line"><path d="M21 3C21.5523 3 22 3.44772 22 4V20.0066C22 20.5552 21.5447 21 21.0082 21H2.9918C2.44405 21 2 20.5551 2 20.0066V19H20V7.3L12 14.5L2 5.5V4C2 3.44772 2.44772 3 3 3H21ZM8 15V17H0V15H8ZM5 10V12H0V10H5ZM19.5659 5H4.43414L12 11.8093L19.5659 5Z"></path></symbol><symbol viewBox="0 0 24 24" id="coupon-3-line"><path d="M2.00488 4C2.00488 3.44772 2.4526 3 3.00488 3H21.0049C21.5572 3 22.0049 3.44772 22.0049 4V9.5C20.6242 9.5 19.5049 10.6193 19.5049 12C19.5049 13.3807 20.6242 14.5 22.0049 14.5V20C22.0049 20.5523 21.5572 21 21.0049 21H3.00488C2.4526 21 2.00488 20.5523 2.00488 20V4ZM8.09024 19C8.29615 18.4174 8.85177 18 9.50488 18C10.158 18 10.7136 18.4174 10.9195 19H20.0049V16.0322C18.5232 15.2959 17.5049 13.7669 17.5049 12C17.5049 10.2331 18.5232 8.70411 20.0049 7.96776V5H10.9195C10.7136 5.5826 10.158 6 9.50488 6C8.85177 6 8.29615 5.5826 8.09024 5H4.00488V19H8.09024ZM9.50488 11C8.67646 11 8.00488 10.3284 8.00488 9.5C8.00488 8.67157 8.67646 8 9.50488 8C10.3333 8 11.0049 8.67157 11.0049 9.5C11.0049 10.3284 10.3333 11 9.50488 11ZM9.50488 16C8.67646 16 8.00488 15.3284 8.00488 14.5C8.00488 13.6716 8.67646 13 9.50488 13C10.3333 13 11.0049 13.6716 11.0049 14.5C11.0049 15.3284 10.3333 16 9.50488 16Z"></path></symbol><symbol viewBox="0 0 24 24" id="shopping-cart-line"><path d="M4.00488 16V4H2.00488V2H5.00488C5.55717 2 6.00488 2.44772 6.00488 3V15H18.4433L20.4433 7H8.00488V5H21.7241C22.2764 5 22.7241 5.44772 22.7241 6C22.7241 6.08176 22.7141 6.16322 22.6942 6.24254L20.1942 16.2425C20.083 16.6877 19.683 17 19.2241 17H5.00488C4.4526 17 4.00488 16.5523 4.00488 16ZM6.00488 23C4.90031 23 4.00488 22.1046 4.00488 21C4.00488 19.8954 4.90031 19 6.00488 19C7.10945 19 8.00488 19.8954 8.00488 21C8.00488 22.1046 7.10945 23 6.00488 23ZM18.0049 23C16.9003 23 16.0049 22.1046 16.0049 21C16.0049 19.8954 16.9003 19 18.0049 19C19.1095 19 20.0049 19.8954 20.0049 21C20.0049 22.1046 19.1095 23 18.0049 23Z"></path></symbol><symbol viewBox="0 0 24 24" id="surgical-mask-line"><path d="M12.4851 3.12124L20.2425 5.0606C20.6877 5.1719 21 5.57188 21 6.03075V6.99952L22 6.99997C23.1 6.99997 24 7.89997 24 8.99997V12C24 13.6568 22.6569 15 21 15L20.5789 15.0003C20.0443 16.3501 19.0275 17.4862 17.6833 18.1583L12.8944 20.5528C12.3314 20.8343 11.6686 20.8343 11.1056 20.5528L6.31672 18.1583C4.97252 17.4862 3.95573 16.3501 3.42113 15.0003L3 15C1.34315 15 0 13.6568 0 12V8.99997C0 7.8954 0.89543 6.99997 2 6.99997L3 6.99952V6.03075C3 5.57188 3.3123 5.1719 3.75746 5.0606L11.5149 3.12124C11.8334 3.04162 12.1666 3.04162 12.4851 3.12124ZM12 5.06152L5 6.81152V12.7918C5 14.3069 5.85601 15.6919 7.21115 16.3695L12 18.7639L16.7889 16.3695C18.144 15.6919 19 14.3069 19 12.7918V6.81152L12 5.06152ZM3 8.99997H2V12C2 12.5523 2.44772 13 3 13V8.99997ZM22 8.99997H21V13C21.5523 13 22 12.5523 22 12V8.99997Z"></path></symbol><symbol viewBox="0 0 24 24" id="map-pin-line"><path d="M12 20.8995L16.9497 15.9497C19.6834 13.2161 19.6834 8.78392 16.9497 6.05025C14.2161 3.31658 9.78392 3.31658 7.05025 6.05025C4.31658 8.78392 4.31658 13.2161 7.05025 15.9497L12 20.8995ZM12 23.7279L5.63604 17.364C2.12132 13.8492 2.12132 8.15076 5.63604 4.63604C9.15076 1.12132 14.8492 1.12132 18.364 4.63604C21.8787 8.15076 21.8787 13.8492 18.364 17.364L12 23.7279ZM12 13C13.1046 13 14 12.1046 14 11C14 9.89543 13.1046 9 12 9C10.8954 9 10 9.89543 10 11C10 12.1046 10.8954 13 12 13ZM12 15C9.79086 15 8 13.2091 8 11C8 8.79086 9.79086 7 12 7C14.2091 7 16 8.79086 16 11C16 13.2091 14.2091 15 12 15Z"></path></symbol><symbol viewBox="0 0 24 24" id="signal-tower-line"><path d="M6.11629 20.0868L7.1308 18.348C5.2271 16.8856 4 14.5861 4 12C4 7.58172 7.58172 4 12 4C16.4183 4 20 7.58172 20 12C20 14.5861 18.7729 16.8856 16.8692 18.348L17.8837 20.0868C20.3786 18.2684 22 15.3236 22 12C22 6.47715 17.5228 2 12 2C6.47715 2 2 6.47715 2 12C2 15.3236 3.62137 18.2684 6.11629 20.0868ZM8.14965 16.6018C6.83562 15.5012 6 13.8482 6 12C6 8.68629 8.68629 6 12 6C15.3137 6 18 8.68629 18 12C18 13.8482 17.1644 15.5012 15.8503 16.6018L14.8203 14.8365C15.549 14.112 16 13.1087 16 12C16 9.79086 14.2091 8 12 8C9.79086 8 8 9.79086 8 12C8 13.1087 8.45105 14.112 9.17965 14.8365L8.14965 16.6018ZM11 13H13V22H11V13Z"></path></symbol></svg>